<svg width="13" height="15" viewBox="0 0 13 15" fill="none" xmlns="http://www.w3.org/2000/svg">
<path d="M11.6563 1.87501H8.84378V0.937503C8.84378 0.419533 8.42423 0 7.90626 0H5.09377C4.5758 0 4.15627 0.419533 4.15627 0.937503V1.87501H1.34378C0.82581 1.87501 0.406277 2.29454 0.406277 2.81251V3.75001C0.406277 4.2675 0.82581 4.68703 1.34284 4.68751H11.6568C12.1743 4.68703 12.5938 4.2675 12.5938 3.75001V2.81249C12.5938 2.29454 12.1742 1.87501 11.6563 1.87501ZM7.90626 1.87501H5.09377V1.40624C5.09377 1.1475 5.30377 0.937483 5.56251 0.937483H7.43752C7.69626 0.937483 7.90626 1.14748 7.90626 1.40624V1.87501ZM1.34376 13.125C1.34376 14.1605 2.18328 15 3.21876 15H9.78128C10.8167 15 11.6563 14.1605 11.6563 13.125V5.62499H1.34376V13.125ZM8.37504 7.03126C8.37504 6.77251 8.58503 6.5625 8.84378 6.5625C9.10253 6.5625 9.31252 6.77249 9.31252 7.03126V12.6563C9.31252 12.915 9.10253 13.125 8.84378 13.125C8.58503 13.125 8.37504 12.915 8.37504 12.6563V7.03126ZM6.03127 7.03126C6.03127 6.77251 6.24127 6.5625 6.50003 6.5625C6.7588 6.5625 6.96877 6.77249 6.96877 7.03126V12.6563C6.96877 12.915 6.75878 13.125 6.50003 13.125C6.24129 13.125 6.03127 12.915 6.03127 12.6563V7.03126ZM3.68751 7.03126C3.68751 6.77251 3.8975 6.5625 4.15627 6.5625C4.41503 6.5625 4.62503 6.77249 4.62503 7.03126V12.6563C4.62503 12.915 4.41503 13.125 4.15627 13.125C3.8975 13.125 3.68751 12.915 3.68751 12.6563V7.03126Z" fill="white"/>
</svg>
